<?xml version="1.0" standalone="no"?>
<!DOCTYPE svg PUBLIC "-//W3C//DTD SVG 20010904//EN"
 "http://www.w3.org/TR/2001/REC-SVG-20010904/DTD/svg10.dtd">
<svg version="1.0" xmlns="http://www.w3.org/2000/svg"
 width="906.000000pt" height="906.000000pt" viewBox="0 0 906.000000 906.000000"
 preserveAspectRatio="xMidYMid meet">
<metadata>
Created by potrace 1.14, written by Peter Selinger 2001-2017
</metadata>
<g transform="translate(0.000000,906.000000) scale(0.100000,-0.100000)"
fill="#000000" stroke="none">
<path d="M4154 9036 c-47 -24 -62 -43 -244 -308 -107 -156 -982 -1428 -1944
-2828 -962 -1400 -1758 -2565 -1768 -2589 -23 -49 -18 -96 13 -148 14 -22 209
-162 642 -459 651 -448 1926 -1324 3012 -2070 352 -242 697 -479 766 -527 73
-50 145 -91 171 -98 42 -12 49 -11 99 14 30 15 61 37 70 50 9 12 369 535 799
1162 431 627 1299 1889 1928 2805 630 916 1154 1685 1165 1709 22 49 17 97
-14 148 -14 23 -249 189 -787 559 -2119 1457 -3673 2524 -3722 2557 -75 50
-121 55 -186 23z m1362 -1716 c514 -40 832 -158 1107 -409 128 -118 243 -309
283 -471 28 -113 27 -341 -3 -475 -53 -236 -162 -439 -332 -618 -165 -173
-385 -313 -664 -422 l-98 -39 108 -22 c197 -40 371 -109 510 -201 83 -54 227
-196 278 -273 66 -99 122 -222 152 -335 24 -92 27 -115 27 -295 0 -166 -4
-211 -23 -300 -105 -489 -399 -895 -866 -1199 -286 -186 -637 -326 -954 -380
-280 -48 -451 -50 -990 -14 -160 10 -398 16 -681 17 -449 1 -538 -4 -778 -45
-63 -10 -117 -17 -122 -14 -4 3 0 33 11 67 10 35 25 89 34 121 9 32 21 59 28
61 7 2 62 9 122 15 122 12 261 46 349 85 207 92 325 260 461 660 55 161 54
158 385 1461 45 176 101 397 125 490 272 1061 281 1098 291 1210 7 79 -3 110
-53 157 -39 37 -73 48 -154 48 -47 0 -69 4 -69 12 0 20 43 193 50 201 4 4 90
16 191 27 261 27 644 92 853 146 32 8 60 13 62 11 2 -2 -18 -72 -46 -156 -121
-368 -163 -523 -340 -1261 -37 -157 -70 -293 -72 -304 -3 -17 5 -18 102 -17
193 3 398 36 570 92 220 72 365 161 526 323 193 195 298 385 355 647 31 138
33 368 6 474 -26 99 -88 219 -150 293 -153 178 -363 282 -667 328 -123 18
-491 21 -640 4 -411 -46 -760 -147 -1125 -325 -357 -174 -631 -368 -890 -629
-464 -468 -735 -1039 -752 -1587 -8 -237 15 -367 92 -519 73 -144 117 -190
338 -349 233 -169 287 -236 289 -359 1 -96 -49 -179 -134 -223 -55 -28 -175
-26 -248 4 -222 92 -464 398 -564 716 -59 186 -71 284 -71 566 1 223 4 278 23
388 137 786 616 1502 1322 1974 363 242 754 418 1165 523 407 104 891 150
1271 120z"/>
<path d="M4611 4547 c-5 -18 -58 -221 -116 -452 -194 -767 -215 -843 -307
-1125 -107 -328 -192 -514 -303 -662 -41 -54 -59 -85 -51 -90 18 -10 312 -65
416 -78 120 -14 400 -14 521 0 347 41 666 193 864 411 191 211 333 470 398
724 33 130 36 152 46 294 19 271 -29 466 -159 641 -187 252 -419 339 -950 355
-91 3 -206 7 -257 10 l-92 4 -10 -32z"/>
</g>
</svg>
