<?xml version="1.0" encoding="UTF-8" standalone="no"?>
<!-- Created with Inkscape (http://www.inkscape.org/) -->

<svg
   width="751.15405"
   height="269.2851"
   viewBox="0 0 751.15405 269.2851"
   version="1.1"
   id="svg5"
   xml:space="preserve"
   inkscape:export-filename="Bez pozadine bez gornjeg teksta HR.png"
   inkscape:export-xdpi="770.03888"
   inkscape:export-ydpi="770.03888"
   sodipodi:docname="Bez gornjeg teksta vektor.svg"
   inkscape:version="1.2.2 (732a01da63, 2022-12-09)"
   xmlns:inkscape="http://www.inkscape.org/namespaces/inkscape"
   xmlns:sodipodi="http://sodipodi.sourceforge.net/DTD/sodipodi-0.dtd"
   xmlns="http://www.w3.org/2000/svg"
   xmlns:svg="http://www.w3.org/2000/svg"><sodipodi:namedview
     id="namedview7"
     pagecolor="#ffffff"
     bordercolor="#000000"
     borderopacity="0.25"
     inkscape:showpageshadow="2"
     inkscape:pageopacity="0.0"
     inkscape:pagecheckerboard="0"
     inkscape:deskcolor="#d1d1d1"
     inkscape:document-units="px"
     showgrid="false"
     showguides="true"
     inkscape:zoom="1.7373267"
     inkscape:cx="376.72822"
     inkscape:cy="134.40189"
     inkscape:window-width="1920"
     inkscape:window-height="991"
     inkscape:window-x="-9"
     inkscape:window-y="-9"
     inkscape:window-maximized="1"
     inkscape:current-layer="layer1"><inkscape:grid
       type="xygrid"
       id="grid4379" /></sodipodi:namedview><defs
     id="defs2"><inkscape:path-effect
       effect="fill_between_many"
       method="originald"
       linkedpaths="#rect2100,0,1"
       id="path-effect4580"
       is_visible="true"
       lpeversion="0"
       join="true"
       close="true"
       autoreverse="true" /></defs><g
     inkscape:label="Layer 1"
     inkscape:groupmode="layer"
     id="layer1"
     transform="translate(-34.422985,-96.35746)"><g
       aria-label="ritannica"
       transform="matrix(1.160541,0,0,1.160541,-169.6741,95.776672)"
       id="text336"
       style="font-size:134.42px;font-family:'Monotype Corsiva';-inkscape-font-specification:'Monotype Corsiva';text-align:justify;letter-spacing:3.44667px;white-space:pre;inline-size:641.64;fill:#0a1e7b"><path
         d="m 380.35585,182.77863 h -9.77958 l 4.59443,-17.65576 q 3.34738,-12.99568 5.8415,-24.67867 0.59071,-2.88793 0.59071,-3.60991 0,-1.57523 -1.44397,-1.57523 -0.98452,0 -3.01919,1.37833 -2.03468,1.31269 -7.3511,6.62911 l -2.03468,-2.29722 q 6.30094,-6.76038 12.53624,-10.10775 6.30094,-3.41301 9.64831,-3.41301 1.18143,0 1.83778,0.59071 0.72198,0.52508 0.72198,1.37833 0,0.85325 -0.85325,4.5288 l -2.8223,11.74862 q 6.62912,-10.43592 14.96473,-17.85265 4.00372,-3.54428 6.69475,-3.54428 1.96904,0 3.28173,1.3127 1.3127,1.24706 1.3127,2.95356 0,1.77214 -1.3127,3.0192 -1.24706,1.24706 -6.36657,2.95356 -4.85697,1.64087 -7.9418,3.93809 -3.0192,2.29722 -6.69475,7.02292 -3.60991,4.7257 -5.05388,8.26998 -1.44396,3.47864 -4.39753,16.27742 z"
         id="path998" /><path
         d="m 439.92024,99.35684 q 2.03468,0 3.34737,1.37833 1.3127,1.31269 1.3127,3.41301 0,2.88793 -2.03468,5.11951 -1.96904,2.16595 -4.46316,2.16595 -1.96904,0 -3.28174,-1.37833 -1.3127,-1.37833 -1.3127,-3.60992 0,-2.95356 1.90341,-4.98824 1.90341,-2.10031 4.5288,-2.10031 z m -25.8601,43.45021 -2.88793,-2.23158 q 6.56348,-7.21982 11.94553,-10.23902 5.44769,-3.08484 9.2545,-3.08484 2.10032,0 3.21611,0.91889 1.11579,0.91889 1.11579,2.49412 0,1.90341 -4.26626,16.14615 -6.95729,23.30035 -6.95729,28.09168 0,0.91889 0.45945,1.57524 0.45944,0.59071 0.98452,0.59071 2.10031,0 10.7641,-8.13871 l 2.55976,2.49412 q -8.99197,8.46689 -13.12696,10.82974 -4.13499,2.36285 -6.76038,2.36285 -2.29721,0 -3.67554,-1.44397 -1.3127,-1.44396 -1.3127,-4.00372 0,-8.20434 9.84521,-40.10284 0.45945,-1.5096 0.45945,-2.69102 0,-1.3127 -1.18143,-1.3127 -1.31269,0 -3.0192,1.05016 -1.64087,1.05015 -7.41673,6.69474 z"
         id="path1000" /><path
         d="m 466.01091,117.47203 10.43592,-4.00372 -4.7257,18.37774 h 13.5864 l -1.05016,4.66007 h -13.5864 l -5.77586,21.98764 q -2.69102,9.91085 -2.69102,13.7833 0,1.77214 0.72198,2.55976 0.78762,0.78762 2.10031,0.78762 2.03468,0 6.23531,-2.42849 5.51332,-3.2161 10.50156,-7.28546 l 2.49412,3.0192 q -14.37401,10.82974 -19.23099,13.25822 -4.85697,2.42849 -7.81053,2.42849 -2.42849,0 -3.87245,-1.77214 -1.37833,-1.77214 -1.37833,-5.77586 0,-4.7257 2.49412,-14.43965 l 6.76038,-26.12263 h -10.63283 l 1.18142,-4.66007 h 10.5672 z"
         id="path1002" /><path
         d="m 538.83352,126.464 4.33189,-0.91889 -4.9226,16.6056 q -2.95357,9.91085 -5.57896,22.84089 -1.44396,7.02292 -1.44396,9.0576 0,2.03468 1.64087,2.03468 1.05015,0 3.34737,-1.37833 4.06936,-2.42849 7.81054,-6.0384 l 2.10031,2.55976 q -7.48236,6.82601 -9.58268,8.26998 -4.20062,2.88793 -8.00744,4.26626 -2.49412,0.91888 -4.85697,0.91888 -1.7065,0 -2.55976,-0.78761 -0.85325,-0.78762 -0.85325,-2.29722 0,-0.98452 0.52508,-2.69103 l 2.62539,-8.92632 q -5.64459,6.76038 -13.45513,11.61735 -4.79133,3.0192 -8.79505,3.0192 -3.80682,0 -5.8415,-2.69103 -2.75666,-3.60991 -2.75666,-9.4514 0,-6.95729 3.67555,-15.48981 3.74118,-8.53252 9.97648,-15.4898 6.2353,-6.95729 13.12696,-10.23902 5.31641,-2.49413 13.65203,-2.49413 2.10031,0 4.26626,0.26254 z m -8.13871,10.04212 q -3.54428,-0.72199 -5.97276,-0.72199 -5.90713,0 -10.30466,3.28174 -4.39753,3.21611 -8.20435,11.68299 -3.74118,8.40125 -3.74118,16.8025 0,4.46316 1.5096,6.43221 1.5096,1.96904 3.93809,1.96904 4.52879,0 9.71394,-4.85697 5.18515,-4.92261 7.61363,-14.11148 z"
         id="path1004" /><path
         d="m 555.93222,142.93832 -2.23159,-2.29721 q 8.40125,-8.00744 13.3895,-10.63284 4.98824,-2.62539 8.53252,-2.62539 1.37833,0 2.16594,0.59072 0.78762,0.59071 0.78762,1.37833 0,0.59071 -0.32817,2.10031 l -2.95357,13.19259 q 6.69475,-7.41673 16.8025,-13.84894 5.38205,-3.34737 8.8607,-3.34737 2.55975,0 4.00372,1.64087 1.44396,1.64087 1.44396,4.7257 0,2.03468 -0.59071,4.59443 -1.05016,4.26626 -5.51332,18.57464 -4.20063,13.38949 -4.20063,17.78702 0,1.3127 0.39381,1.96905 0.39381,0.65634 1.11579,0.65634 1.90341,0 5.97277,-3.67554 2.88793,-2.62539 5.77586,-4.85697 l 1.64086,2.36285 q -6.03839,6.69474 -12.53624,10.7641 -4.13499,2.62539 -6.82601,2.62539 -2.49412,0 -3.87245,-1.83777 -1.37833,-1.77214 -1.37833,-5.8415 0,-5.84149 7.28546,-29.0762 2.23158,-8.26998 2.23158,-9.64831 0,-2.03468 -2.42849,-2.03468 -2.62539,0 -6.76038,2.75666 -6.16967,4.06936 -10.30466,9.58268 -2.62539,3.54428 -4.39753,11.28918 l -5.31641,22.90653 h -9.77958 q 2.75666,-9.84521 4.79134,-18.83718 l 5.84149,-24.94121 q 0.32817,-1.5096 0.32817,-2.16594 0,-1.77214 -1.31269,-1.77214 -1.05016,0 -3.0192,1.37833 -4.06936,2.69102 -7.61363,6.56347 z"
         id="path1006" /><path
         d="m 621.20684,142.93832 -2.23158,-2.29721 q 8.40125,-8.00744 13.38949,-10.63284 4.98825,-2.62539 8.53252,-2.62539 1.37833,0 2.16595,0.59072 0.78762,0.59071 0.78762,1.37833 0,0.59071 -0.32818,2.10031 l -2.95356,13.19259 q 6.69475,-7.41673 16.8025,-13.84894 5.38205,-3.34737 8.86069,-3.34737 2.55976,0 4.00372,1.64087 1.44397,1.64087 1.44397,4.7257 0,2.03468 -0.59071,4.59443 -1.05016,4.26626 -5.51332,18.57464 -4.20063,13.38949 -4.20063,17.78702 0,1.3127 0.39381,1.96905 0.39381,0.65634 1.11579,0.65634 1.90341,0 5.97276,-3.67554 2.88793,-2.62539 5.77586,-4.85697 l 1.64087,2.36285 q -6.0384,6.69474 -12.53624,10.7641 -4.13499,2.62539 -6.82601,2.62539 -2.49412,0 -3.87245,-1.83777 -1.37833,-1.77214 -1.37833,-5.8415 0,-5.84149 7.28545,-29.0762 2.23159,-8.26998 2.23159,-9.64831 0,-2.03468 -2.42849,-2.03468 -2.62539,0 -6.76038,2.75666 -6.16967,4.06936 -10.30466,9.58268 -2.62539,3.54428 -4.39753,11.28918 l -5.31641,22.90653 h -9.77958 q 2.75666,-9.84521 4.79133,-18.83718 l 5.8415,-24.94121 q 0.32817,-1.5096 0.32817,-2.16594 0,-1.77214 -1.31269,-1.77214 -1.05016,0 -3.0192,1.37833 -4.06936,2.69102 -7.61364,6.56347 z"
         id="path1008" /><path
         d="m 712.47284,99.35684 q 2.03468,0 3.34737,1.37833 1.3127,1.31269 1.3127,3.41301 0,2.88793 -2.03468,5.11951 -1.96904,2.16595 -4.46316,2.16595 -1.96905,0 -3.28174,-1.37833 -1.3127,-1.37833 -1.3127,-3.60992 0,-2.95356 1.90341,-4.98824 1.90341,-2.10031 4.5288,-2.10031 z m -25.8601,43.45021 -2.88793,-2.23158 q 6.56348,-7.21982 11.94553,-10.23902 5.44768,-3.08484 9.2545,-3.08484 2.10031,0 3.2161,0.91889 1.1158,0.91889 1.1158,2.49412 0,1.90341 -4.26626,16.14615 -6.95729,23.30035 -6.95729,28.09168 0,0.91889 0.45944,1.57524 0.45945,0.59071 0.98453,0.59071 2.10031,0 10.7641,-8.13871 l 2.55975,2.49412 q -8.99196,8.46689 -13.12695,10.82974 -4.13499,2.36285 -6.76038,2.36285 -2.29722,0 -3.67555,-1.44397 -1.31269,-1.44396 -1.31269,-4.00372 0,-8.20434 9.84521,-40.10284 0.45944,-1.5096 0.45944,-2.69102 0,-1.3127 -1.18142,-1.3127 -1.3127,0 -3.0192,1.05016 -1.64087,1.05015 -7.41673,6.69474 z"
         id="path1010" /><path
         d="m 756.21925,168.53588 1.37833,3.80682 q -15.62107,12.2737 -26.38517,12.2737 -5.71023,0 -8.33562,-4.06936 -2.55975,-4.06935 -2.55975,-10.30465 0,-10.3703 5.51332,-21.3313 5.51332,-10.96101 13.38949,-16.8025 6.16967,-4.5288 13.91457,-4.5288 4.85697,0 7.35109,1.83777 2.49413,1.83778 2.49413,4.46317 0,2.03467 -1.3127,3.34737 -1.3127,1.24706 -3.67555,1.24706 -2.29721,0 -5.90713,-2.10031 -3.74118,-2.23159 -6.2353,-2.23159 -3.2161,0 -6.43221,2.95357 -3.15046,2.88793 -6.03839,11.28918 -2.88793,8.40125 -2.88793,16.86813 0,6.23531 2.42848,9.64831 1.77214,2.62539 4.98825,2.62539 7.67926,0 18.31209,-8.99196 z"
         id="path1012" /><path
         d="m 814.07713,126.464 4.33189,-0.91889 -4.92261,16.6056 q -2.95356,9.91085 -5.57895,22.84089 -1.44397,7.02292 -1.44397,9.0576 0,2.03468 1.64087,2.03468 1.05016,0 3.34738,-1.37833 4.06935,-2.42849 7.81053,-6.0384 l 2.10032,2.55976 q -7.48237,6.82601 -9.58268,8.26998 -4.20062,2.88793 -8.00744,4.26626 -2.49412,0.91888 -4.85697,0.91888 -1.70651,0 -2.55976,-0.78761 -0.85325,-0.78762 -0.85325,-2.29722 0,-0.98452 0.52508,-2.69103 l 2.62539,-8.92632 q -5.64459,6.76038 -13.45513,11.61735 -4.79134,3.0192 -8.79506,3.0192 -3.80681,0 -5.84149,-2.69103 -2.75666,-3.60991 -2.75666,-9.4514 0,-6.95729 3.67554,-15.48981 3.74119,-8.53252 9.97649,-15.4898 6.2353,-6.95729 13.12695,-10.23902 5.31642,-2.49413 13.65203,-2.49413 2.10032,0 4.26626,0.26254 z m -8.13871,10.04212 q -3.54428,-0.72199 -5.97277,-0.72199 -5.90713,0 -10.30466,3.28174 -4.39752,3.21611 -8.20434,11.68299 -3.74118,8.40125 -3.74118,16.8025 0,4.46316 1.5096,6.43221 1.5096,1.96904 3.93808,1.96904 4.5288,0 9.71395,-4.85697 5.18514,-4.92261 7.61363,-14.11148 z"
         id="path1014" /></g><g
       id="g1849"><path
         id="path4582"
         style="fill:#dc0a0a;fill-opacity:1"
         d="m 154.72572,96.35746 c -1.6897,-0.01478 -3.35354,0.785769 -4.38672,2.289063 L 35.354626,265.94926 c -1.653094,2.40526 -1.047851,5.67306 1.357421,7.32617 l 133.041013,91.43555 c 2.40527,1.65309 5.67309,1.04784 7.32617,-1.35743 L 289.94447,199.13285 H 785.57728 V 188.55082 H 290.45423 L 157.66517,97.287148 c -0.90198,-0.619914 -1.92562,-0.920814 -2.93945,-0.929688 z" /><g
         aria-label="B"
         id="text424"
         style="font-size:273.333px;font-family:'Monotype Corsiva';-inkscape-font-specification:'Monotype Corsiva';text-align:justify;fill:#ffffff"><path
           d="m 147.83241,181.30021 1.60156,-6.40624 q 15.21482,-1.06771 32.83199,-5.33854 -4.67122,13.74673 -6.80663,22.15493 l -7.20703,29.76233 q 23.62302,0 35.50126,-11.74478 12.01171,-11.87824 12.01171,-28.16077 0,-11.34439 -8.67512,-18.28449 -8.54166,-6.94009 -25.62497,-6.94009 -24.15687,0 -46.04487,11.47785 -21.88799,11.47785 -34.16662,30.02926 -12.145172,18.41795 -12.145172,36.96936 0,5.07161 1.334633,9.4759 1.468098,4.27083 4.137365,7.87434 1.601561,2.13541 7.073564,5.87239 6.13931,4.27082 7.60741,6.40624 1.4681,2.00195 1.4681,4.80468 0,2.80273 -2.13542,4.93815 -2.00195,2.00195 -4.93814,2.00195 -7.607416,0 -15.481756,-11.07746 -7.740876,-11.07746 -7.740876,-27.36 0,-22.42185 13.346338,-43.3756 13.479804,-21.08721 38.037064,-33.76623 24.55726,-12.67902 54.05267,-12.67902 24.02341,0 36.4355,9.4759 12.54556,9.4759 12.54556,23.08916 0,12.94595 -8.40819,23.62302 -8.40819,10.54361 -25.49151,16.28253 11.74478,1.86849 18.55141,6.40624 6.80664,4.4043 10.41015,11.21093 3.73697,6.80663 3.73697,15.61521 0,14.41405 -8.54166,27.36 -8.40819,12.81248 -24.95765,21.35414 -16.41599,8.40819 -34.30009,8.40819 -5.20507,0 -22.28838,-1.0677 -8.14127,-0.40039 -17.08332,-0.40039 -13.61326,0 -24.15687,2.13541 l 2.00195,-7.34049 q 14.01366,-0.80078 19.88605,-6.67317 6.00585,-6.00585 11.21092,-26.29228 l 19.75258,-77.54223 q 1.20117,-4.93814 1.20117,-7.47395 0,-2.00195 -1.73502,-3.47004 -1.60156,-1.60157 -4.13737,-1.60157 -1.0677,0 -2.66926,0.26693 z m 18.28448,48.18028 -6.80663,26.82614 q -5.20507,20.82029 -10.00976,32.03121 -2.80273,6.67317 -7.20702,11.34439 12.01171,2.9362 20.68682,2.9362 23.3561,0 35.23434,-14.41405 12.0117,-14.41404 12.0117,-32.16467 0,-8.80859 -4.53775,-15.08137 -4.40429,-6.40624 -11.74478,-8.94204 -7.20702,-2.53581 -27.62692,-2.53581 z"
           id="path1066" /></g></g></g></svg>
