<?xml version="1.0" encoding="UTF-8" standalone="no"?>
<!-- Created with Inkscape (http://www.inkscape.org/) -->

<svg
   width="434.84821"
   height="452.86746"
   viewBox="0 0 434.84821 452.86746"
   version="1.1"
   id="svg5"
   xml:space="preserve"
   sodipodi:docname="Slovo vektor.svg"
   inkscape:export-filename="Bez pozadine slovo HR.png"
   inkscape:export-xdpi="457.88235"
   inkscape:export-ydpi="457.88235"
   inkscape:version="1.2.2 (732a01da63, 2022-12-09)"
   xmlns:inkscape="http://www.inkscape.org/namespaces/inkscape"
   xmlns:sodipodi="http://sodipodi.sourceforge.net/DTD/sodipodi-0.dtd"
   xmlns="http://www.w3.org/2000/svg"
   xmlns:svg="http://www.w3.org/2000/svg"><sodipodi:namedview
     id="namedview7"
     pagecolor="#ffffff"
     bordercolor="#000000"
     borderopacity="0.25"
     inkscape:showpageshadow="2"
     inkscape:pageopacity="0.0"
     inkscape:pagecheckerboard="0"
     inkscape:deskcolor="#d1d1d1"
     inkscape:document-units="px"
     showgrid="false"
     showguides="true"
     inkscape:zoom="1.7753539"
     inkscape:cx="218.26634"
     inkscape:cy="227.27863"
     inkscape:window-width="1920"
     inkscape:window-height="991"
     inkscape:window-x="-9"
     inkscape:window-y="-9"
     inkscape:window-maximized="1"
     inkscape:current-layer="layer1"><inkscape:grid
       type="xygrid"
       id="grid4379" /></sodipodi:namedview><defs
     id="defs2" /><g
     inkscape:label="Layer 1"
     inkscape:groupmode="layer"
     id="layer1"
     transform="translate(-197.63312,-5.1597376)"><g
       id="g4847"
       transform="matrix(1.6817382,0,0,1.6817382,144.13128,-84.818331)"><path
         id="rect589"
         style="opacity:1;fill:#dc0a0a;stroke-width:0.94349"
         transform="rotate(34.5)"
         d="m 158.61653,-42.963203 h 161.43213 c 2.91858,0 5.26819,2.349612 5.26819,5.268189 V 165.31191 c 0,2.91858 -2.34961,5.26819 -5.26819,5.26819 H 158.61653 c -2.91857,0 -5.26819,-2.34961 -5.26819,-5.26819 V -37.695014 c 0,-2.918577 2.34962,-5.268189 5.26819,-5.268189 z" /><g
         aria-label="B"
         id="text4383"
         style="font-size:273.333px;font-family:'Monotype Corsiva';-inkscape-font-specification:'Monotype Corsiva';text-align:justify;opacity:1;fill:#ffffff"><path
           d="m 145.29641,138.47831 1.60156,-6.40624 q 15.21483,-1.06771 32.83199,-5.33854 -4.67122,13.74673 -6.80663,22.15493 l -7.20702,29.76233 q 23.62302,0 35.50126,-11.74478 12.0117,-11.87824 12.0117,-28.16077 0,-11.34439 -8.67512,-18.28448 -8.54165,-6.9401 -25.62497,-6.9401 -24.15687,0 -46.04486,11.47785 -21.888,11.47785 -34.16663,30.02926 -12.145168,18.41795 -12.145168,36.96936 0,5.07161 1.334634,9.4759 1.468097,4.27083 4.137365,7.87434 1.60156,2.13541 7.073559,5.87239 6.13932,4.27083 7.60741,6.40624 1.4681,2.00195 1.4681,4.80468 0,2.80273 -2.13541,4.93815 -2.00195,2.00195 -4.93815,2.00195 -7.607412,0 -15.481752,-11.07746 -7.740876,-11.07746 -7.740876,-27.36 0,-22.42185 13.346339,-43.3756 13.479799,-21.08721 38.037059,-33.76623 24.55727,-12.67902 54.05267,-12.67902 24.02341,0 36.43551,9.4759 12.54556,9.4759 12.54556,23.08916 0,12.94595 -8.4082,23.62302 -8.40819,10.54361 -25.4915,16.28253 11.74477,1.86849 18.55141,6.40625 6.80663,4.40429 10.41014,11.21092 3.73698,6.80663 3.73698,15.61522 0,14.41404 -8.54166,27.35999 -8.40819,12.81248 -24.95765,21.35414 -16.416,8.40819 -34.30009,8.40819 -5.20507,0 -22.28839,-1.0677 -8.14126,-0.40039 -17.08331,-0.40039 -13.61327,0 -24.156873,2.13541 l 2.001953,-7.34049 q 14.01365,-0.80078 19.88604,-6.67317 6.00585,-6.00585 11.21093,-26.29228 l 19.75258,-77.54223 q 1.20117,-4.93814 1.20117,-7.47395 0,-2.00195 -1.73503,-3.47004 -1.60156,-1.60156 -4.13736,-1.60156 -1.06771,0 -2.66927,0.26692 z m 18.28448,48.18028 -6.80663,26.82614 q -5.20507,20.82029 -10.00975,32.03121 -2.80273,6.67317 -7.20702,11.34439 12.0117,2.9362 20.68682,2.9362 23.35609,0 35.23433,-14.41405 12.01171,-14.41404 12.01171,-32.16467 0,-8.80859 -4.53776,-15.08137 -4.40429,-6.40624 -11.74478,-8.94204 -7.20702,-2.53581 -27.62692,-2.53581 z"
           id="path1500" /></g></g></g></svg>
